<?xml version="1.0" standalone="no"?>
<!DOCTYPE svg PUBLIC "-//W3C//DTD SVG 1.1//EN" "http://www.w3.org/Graphics/SVG/1.1/DTD/svg11.dtd" >
<svg xmlns="http://www.w3.org/2000/svg">
<metadata>Generated by IcoMoon</metadata>
<defs>
<font id="icomoon" horiz-adv-x="1024">
<font-face units-per-em="1024" ascent="960" descent="-64" />
<missing-glyph horiz-adv-x="1024" />
<glyph unicode="&#x20;" horiz-adv-x="512" d="" />
<glyph unicode="&#xe906;" glyph-name="arrow-back" horiz-adv-x="585" d="M176.444 448.162l387.712 387.334c13.196 13.236 21.355 31.5 21.355 51.67 0 40.42-32.767 73.187-73.187 73.187-20.25 0-38.58-8.224-51.83-21.515l-438.952-438.682c-13.178-13.213-21.327-31.447-21.327-51.585 0-19.039 7.283-36.376 19.216-49.378l-0.049 0.054 440.785-441.703c13.252-13.293 31.581-21.517 51.832-21.517 40.42 0 73.187 32.767 73.187 73.187 0 20.17-8.159 38.434-21.357 51.672l0.002-0.002z" />
<glyph unicode="&#xe907;" glyph-name="arrow-down" horiz-adv-x="1791" d="M895.659 244.565l676.523 677.717c23.093 23.203 55.053 37.561 90.368 37.561s67.276-14.359 90.363-37.556l0.005-0.005c22.987-23.286 37.185-55.297 37.185-90.624s-14.198-67.338-37.198-90.638l-767.986-767.986c-23.114-23.021-54.996-37.254-90.202-37.254-33.294 0-63.615 12.728-86.362 33.585l0.095-0.086-771.243 771.243c-22.31 23.010-36.062 54.428-36.062 89.059 0 70.692 57.308 128 128 128 34.503 0 65.818-13.651 88.837-35.848l-0.039 0.037z" />
<glyph unicode="&#xe908;" glyph-name="arrow-forward" horiz-adv-x="585" d="M408.995 448.162l-387.455 387.455c-13.267 13.202-21.476 31.474-21.476 51.664s8.21 38.463 21.474 51.661l0.003 0.003c13.318 13.143 31.624 21.26 51.826 21.26s38.508-8.117 51.834-21.268l439.165-438.949c13.177-13.211 21.324-31.444 21.324-51.58 0-19.037-7.282-36.372-19.214-49.373l0.049 0.054-441.063-441.765c-13.374-14.123-32.257-22.912-53.194-22.912-40.43 0-73.205 32.775-73.205 73.205 0 20.856 8.721 39.674 22.716 53.008l0.030 0.028z" />
<glyph unicode="&#xe90b;" glyph-name="compare" d="M461.483 283.185c-5.758 5.784-13.727 9.362-22.531 9.362-0.033 0-0.066 0-0.099 0h0.005c-0.092 0.001-0.201 0.002-0.31 0.002-8.737 0-16.637-3.583-22.311-9.359l-0.005-0.005c-5.784-5.758-9.362-13.727-9.362-22.531 0-0.033 0-0.066 0-0.099v0.005c-0.001-0.092-0.002-0.201-0.002-0.31 0-8.737 3.583-16.637 9.359-22.311l0.005-0.005 93.948-91.672h-203.89c-2.746-0.281-5.934-0.441-9.159-0.441-37.585 0-70.086 21.77-85.581 53.388l-0.249 0.562c-13.84 34.817-21.866 75.161-21.866 117.38 0 5.754 0.149 11.473 0.444 17.153l-0.033-0.796v309.215c74.62 14.508 130.181 79.339 130.181 157.146 0 88.332-71.607 159.939-159.939 159.939s-159.939-71.607-159.939-159.939c0-76.208 53.299-139.967 124.653-156.034l1.069-0.202v-309.931c-0.247-5.307-0.387-11.527-0.387-17.781 0-47.169 7.998-92.47 22.713-134.62l-0.871 2.864c23.457-60.284 81.033-102.231 148.406-102.231 3.715 0 7.4 0.128 11.051 0.378l-0.493-0.027h205.060l-91.022-91.867c-5.746-5.859-9.293-13.893-9.293-22.756s3.547-16.897 9.298-22.761l-0.005 0.005c5.888-5.519 13.83-8.909 22.563-8.909 0.113 0 0.226 0.001 0.339 0.002h-0.017c0.14-0.002 0.306-0.004 0.472-0.004 8.686 0 16.535 3.586 22.146 9.359l0.007 0.007 131.657 131.202c9.197 9.151 14.889 21.817 14.889 35.813 0 0.026 0 0.053 0 0.079v-0.004c0 0.016 0 0.036 0 0.055 0 13.859-5.698 26.387-14.88 35.37l-0.009 0.009zM160.004 703.967c-53.035 0-96.028 42.993-96.028 96.028s42.993 96.028 96.028 96.028c53.035 0 96.028-42.993 96.028-96.028v0c0-0.019 0-0.042 0-0.065 0-52.999-42.964-95.963-95.963-95.963-0.023 0-0.046 0-0.069 0h0.004zM898.389 252.367v309.931c0.247 5.307 0.387 11.527 0.387 17.781 0 47.169-7.998 92.47-22.713 134.62l0.871-2.864c-23.538 60.296-81.165 102.236-148.587 102.236-3.743 0-7.455-0.129-11.134-0.384l0.496 0.028h-205.060l91.022 91.867c5.746 5.859 9.293 13.893 9.293 22.756s-3.547 16.897-9.298 22.761l0.005-0.005c-5.857 5.489-13.745 8.871-22.423 8.907h-0.007c-0.14 0.002-0.306 0.004-0.472 0.004-8.686 0-16.535-3.586-22.146-9.359l-0.007-0.007-132.112-131.202c-9.197-9.151-14.889-21.817-14.889-35.813 0-0.026 0-0.053 0-0.079v0.004c0-0.016 0-0.036 0-0.055 0-13.859 5.698-26.387 14.88-35.37l0.009-0.009 136.533-135.753c5.758-5.784 13.727-9.362 22.531-9.362 0.033 0 0.066 0 0.099 0h-0.005c0.092-0.001 0.201-0.002 0.31-0.002 8.737 0 16.637 3.583 22.311 9.359l0.005 0.005c5.784 5.758 9.362 13.727 9.362 22.531 0 0.033 0 0.066 0 0.099v-0.005c0.001 0.092 0.002 0.201 0.002 0.31 0 8.737-3.583 16.637-9.359 22.311l-0.005 0.005-94.728 92.127h204.085c2.738 0.279 5.916 0.439 9.132 0.439 37.66 0 70.216-21.857 85.673-53.577l0.248-0.564c13.84-34.817 21.866-75.161 21.866-117.38 0-5.754-0.149-11.473-0.444-17.153l0.033 0.796v-309.020c-74.62-14.508-130.181-79.339-130.181-157.146 0-88.332 71.607-159.939 159.939-159.939s159.939 71.607 159.939 159.939c0 76.208-53.299 139.967-124.653 156.034l-1.069 0.202zM864.126 0.041c-53.035 0-96.028 42.993-96.028 96.028s42.993 96.028 96.028 96.028c53.035 0 96.028-42.993 96.028-96.028v0c0-0.039 0-0.084 0-0.13 0-52.999-42.964-95.963-95.963-95.963-0.069 0-0.137 0-0.206 0h0.011z" />
<glyph unicode="&#xe90d;" glyph-name="Icon-awesome-address-book" horiz-adv-x="896" d="M871.976 640.006c13.24 0.041 23.96 10.768 23.991 24.006v79.984c-0.030 13.241-10.751 23.968-23.987 24.009h-39.994v95.998c-0.010 53.014-42.984 95.988-95.997 95.998h-639.99c-53.014-0.010-95.988-42.984-95.998-95.997v-832.004c0.010-53.014 42.984-95.988 95.997-95.998h639.99c53.014 0.010 95.988 42.984 95.998 95.997v95.999h39.99c13.24 0.041 23.96 10.768 23.991 24.006v80.002c-0.030 13.241-10.751 23.968-23.987 24.009h-39.994v127.998h39.99c13.24 0.041 23.96 10.768 23.991 24.006v79.984c0 0.005 0 0.012 0 0.018 0 13.264-10.732 24.021-23.987 24.062h-39.994v127.926zM415.993 704.004c70.691 0 127.998-57.307 127.998-127.998s-57.307-127.998-127.998-127.998c-70.691 0-127.998 57.307-127.998 127.998v0c0.071 70.663 57.335 127.926 127.991 127.998h0.007zM639.953 230.409c-1.834-21.636-19.848-38.502-41.802-38.502-1.052 0-2.095 0.039-3.128 0.115l0.138-0.008h-358.336c-0.895-0.068-1.938-0.107-2.99-0.107-21.954 0-39.968 16.866-41.791 38.348l-0.011 0.155v38.396c0 63.605 60.201 115.205 134.376 115.205h9.998c23.504-10.114 50.863-15.995 79.595-15.995s56.092 5.881 80.94 16.506l-1.344-0.511h9.998c74.194 0 134.376-51.6 134.376-115.205z" />
<glyph unicode="&#xe90e;" glyph-name="Icon-awesome-headphones-alt" horiz-adv-x="1170" d="M365.714 374.857h-36.583c-80.806-0.066-146.286-65.587-146.286-146.402 0-0.057 0-0.115 0-0.172v0.009-145.726c0-0.042 0-0.091 0-0.14 0-80.82 65.477-146.346 146.278-146.425h36.567c40.404 0.040 73.143 32.803 73.143 73.213 0 0.025 0 0.049 0 0.074v-0.004 292.292c0 0.021 0 0.045 0 0.070 0 40.401-32.725 73.16-73.114 73.213h-0.005zM841.061 374.857h-36.513c-40.404-0.040-73.143-32.803-73.143-73.213 0-0.025 0-0.049 0-0.074v0.004-292.292c0-0.048 0-0.106 0-0.163 0-40.41 32.739-73.173 73.139-73.213h36.634c80.809 0.080 146.286 65.606 146.286 146.425 0 0.049 0 0.098 0 0.148v-0.008 145.843c0 0.035 0 0.076 0 0.117 0 80.819-65.477 146.346-146.278 146.425h-0.008zM585.12 960c-327.057 0-574.681-272.299-585.12-585.143v-255.988c0-20.191 16.368-36.56 36.56-36.56v0h36.583c20.191 0 36.56 16.368 36.56 36.56v0 255.988c0 262.566 212.851 475.417 475.417 475.417s475.417-212.851 475.417-475.417v0-255.988c0-20.191 16.368-36.56 36.56-36.56v0h36.56c20.191 0 36.56 16.368 36.56 36.56v0 255.988c-10.416 312.844-258.039 585.143-585.096 585.143z" />
<glyph unicode="&#xe90f;" glyph-name="Icon-awesome-pencil-alt" d="M995.762 675.643l-92.228-91.912c-4.316-4.431-10.34-7.18-17.006-7.18s-12.69 2.749-17.001 7.175l-221.953 222.032c-4.431 4.316-7.18 10.34-7.18 17.006s2.749 12.69 7.175 17.001l92.154 92.154c17.395 17.342 41.398 28.065 67.905 28.065s50.51-10.723 67.908-28.068l120.227-120.227c17.49-17.372 28.316-41.434 28.316-68.024s-10.826-50.652-28.31-68.019l-0.005-0.005zM568.634 760.278l-525.526-524.972-42.396-242.988c-0.42-2.386-0.659-5.133-0.659-7.936 0-26.56 21.531-48.091 48.091-48.091 2.803 0 5.55 0.24 8.222 0.7l-0.286-0.041 243.226 42.634 525.209 525.209c4.431 4.316 7.18 10.34 7.18 17.006s-2.749 12.69-7.175 17.001l-0.005 0.005-221.948 221.711c-4.386 4.344-10.422 7.027-17.085 7.027s-12.699-2.684-17.087-7.029l0.002 0.002zM248.13 280.154c-5.071 5.056-8.209 12.049-8.209 19.774s3.138 14.719 8.208 19.774l0.001 0.001 308.007 308.481c4.946 4.486 11.543 7.232 18.78 7.232 15.464 0 28.001-12.536 28.001-28.001 0-7.238-2.746-13.834-7.253-18.804l0.021 0.024-307.928-308.481c-5.056-5.071-12.049-8.209-19.774-8.209s-14.719 3.138-19.774 8.208l-0.001 0.001zM175.913 111.913h96.025v-72.612l-129.008-22.622-62.171 62.171 22.622 129.008h72.612z" />
<glyph unicode="&#xe910;" glyph-name="Icon-awesome-user-alt" d="M512 384.024c159.051 0 287.988 128.937 287.988 287.988s-128.937 287.988-287.988 287.988c-159.051 0-287.988-128.937-287.988-287.988v0c0.054-159.030 128.958-287.934 287.983-287.988h0.005zM768.285 320.047h-110.487c-42.768-20.203-92.905-31.997-145.798-31.997s-103.030 11.794-147.926 32.896l2.128-0.899h-109.918c-141.476 0-256.177-114.635-256.285-256.085v-31.998c0.054-52.978 42.986-95.91 95.959-95.964h832.076c52.978 0.054 95.91 42.986 95.964 95.959v31.993c-0.162 141.32-114.68 255.838-255.984 256h-0.016z" />
<glyph unicode="&#xe913;" glyph-name="Icon-material-web-asset" horiz-adv-x="1152" d="M1024 960h-895.985c-70.701 0-128.015-57.314-128.015-128.015v0-767.971c0-70.701 57.314-128.015 128.015-128.015v0h895.985c70.514 0.462 127.553 57.501 128.014 127.971v768.015c0 70.701-57.314 128.015-128.015 128.015v0zM1024 64.015h-895.985v639.956h895.985z" />
<glyph unicode="&#xe914;" glyph-name="Icon-simple-email" horiz-adv-x="929" d="M927.915 487.389c-1.604-41.409-7.718-80.654-17.877-118.238l0.851 3.697c-9.934-38.203-25.222-71.721-45.29-101.774l0.759 1.207c-19.736-29.218-44.986-53.184-74.433-70.881l-1.063-0.592c-30.021-17.156-65.978-27.272-104.299-27.272-2.094 0-4.181 0.030-6.26 0.090l0.305-0.007c-0.937-0.020-2.041-0.031-3.147-0.031-28.081 0-54.47 7.242-77.401 19.961l0.818-0.416c-22.975 13.056-41.35 31.861-53.525 54.496l-0.358 0.728c-31.294-44.159-82.199-72.632-139.755-72.632-1.662 0-3.318 0.024-4.969 0.071l0.243-0.005c-0.664-0.011-1.448-0.017-2.234-0.017-51.81 0-97.356 26.819-123.514 67.331l-0.349 0.578c-14.666 22.489-25.584 48.871-31.123 77.18l-0.229 1.404c-3.955 19.428-6.218 41.759-6.218 64.619 0 13.349 0.772 26.518 2.273 39.465l-0.149-1.576c5.125 46.464 16.137 88.942 32.377 128.731l-1.148-3.181c14.759 36.918 34.216 68.729 58.1 96.639l-0.389-0.466c21.712 25.334 48.118 45.953 77.963 60.655l1.432 0.638c27.813 13.531 60.507 21.441 95.047 21.441 0.508 0 1.015-0.002 1.522-0.005h-0.078c1.033 0.013 2.254 0.020 3.477 0.020 19.174 0 37.928-1.799 56.102-5.236l-1.867 0.294c17.063-3.37 32.065-8.015 46.351-14.025l-1.555 0.58c14.311-6.095 26.484-12.649 37.981-20.153l-0.93 0.569c11.327-7.287 22.707-14.838 34.034-22.531l-28.018-322.573c-0.819-4.978-1.287-10.715-1.287-16.561 0-7.502 0.771-14.823 2.237-21.89l-0.121 0.695c1.971-9.008 6-16.869 11.58-23.359l-0.059 0.070c4.909-5.557 11.224-9.765 18.391-12.075l0.293-0.082c6.3-2.082 13.551-3.282 21.083-3.282 17.018 0 32.604 6.129 44.672 16.3l-0.104-0.086c14.487 12.252 26.314 27.145 34.832 43.996l0.367 0.8c9.89 19.351 18.044 41.825 23.316 65.386l0.361 1.923c5.664 24.773 9.393 53.577 10.355 83.082l0.019 0.742c0.683 10.134 1.073 21.966 1.073 33.889 0 43.544-5.195 85.876-15 126.407l0.748-3.659c-11.042 46.477-31.149 87.145-58.481 121.857l0.505-0.665c-27.486 33.624-62.339 60.186-102.174 77.4l-1.745 0.671c-42.046 17.593-90.905 27.813-142.15 27.813-3.252 0-6.494-0.041-9.725-0.123l0.478 0.010c-1.673 0.030-3.646 0.047-5.624 0.047-52.409 0-102-12.061-146.15-33.559l1.983 0.871c-45.048-22.552-82.939-52.999-113.291-89.882l-0.474-0.593c-31.492-38.663-56.817-83.869-73.568-133.043l-0.905-3.058c-17.44-50.163-28.712-108.106-31.309-168.299l-0.044-1.271c-0.701-10.527-1.1-22.819-1.1-35.205 0-48.954 6.238-96.451 17.963-141.739l-0.861 3.916c12.301-47.84 34.193-89.457 63.643-124.512l-0.392 0.479c28.462-32.767 64.444-58.258 105.304-73.882l1.809-0.608c41.785-15.687 90.077-24.766 140.49-24.766 2.576 0 5.146 0.024 7.711 0.071l-0.385-0.006c34.564 0.374 68.027 4.153 100.349 11.016l-3.311-0.589c16.002 3.193 31.158 7.057 45.626 11.256 15.814 4.633 28.855 9.435 41.498 14.977l-2.206-0.862 20.29-91.251c-12.635-8.216-27.147-15.556-42.448-21.28l-1.554-0.51c-13.94-5.27-31.318-10.441-49.123-14.49l-2.836-0.542c-32.56-7.59-69.988-12.012-108.424-12.156h-0.1c-2.932-0.054-6.39-0.085-9.855-0.085-67.364 0-131.995 11.705-191.969 33.191l3.972-1.242c-56.936 20.662-105.277 53.122-144.018 94.653l-0.198 0.215c-39.045 43.348-68.867 95.817-85.868 153.768l-0.708 2.816c-15.984 54.437-25.179 116.975-25.179 181.661 0 12.559 0.347 25.038 1.031 37.426l-0.076-1.722c2.787 75.634 17.813 146.938 43.148 213.141l-1.528-4.544c24.118 64.005 58.082 119.034 100.619 166.18l-0.405-0.456c42.063 45.741 92.915 82.669 149.969 108.23l2.893 1.158c56.219 25.087 121.826 39.698 190.846 39.698 2.507 0 5.009-0.019 7.507-0.058l-0.377 0.005c2.84 0.058 6.189 0.091 9.545 0.091 65.627 0 128.299-12.652 185.71-35.651l-3.366 1.19c54.683-22.26 100.959-55.104 138.176-96.29l0.289-0.324c36.567-41.593 64.761-91.515 81.348-146.472l0.728-2.808c14.691-48.181 23.15-103.558 23.15-160.912 0-11.058-0.314-22.043-0.935-32.946l0.069 1.51zM378.396 424.684c-1.515-9.649-2.381-20.776-2.381-32.106 0-27.235 5.001-53.301 14.136-77.332l-0.499 1.495c8.738-21.566 29.515-36.499 53.78-36.499 0.663 0 1.323 0.011 1.981 0.033l-0.096-0.003c6.885 0.174 13.416 1.453 19.5 3.665l-0.428-0.136c8.476 3.157 15.766 7.626 22.011 13.235l-0.063-0.056c8.631 7.713 16.028 16.553 22.027 26.342l0.291 0.511c8.051 13.049 15.001 28.092 20.080 43.971l0.403 1.46 21.878 250.535c-10.178 2.846-21.866 4.481-33.937 4.481-0.034 0-0.069 0-0.103 0h0.005c-0.842 0.022-1.833 0.034-2.828 0.034-19.648 0-38.172-4.815-54.456-13.328l0.649 0.309c-16.509-9.365-30.019-22.243-39.851-37.69l-0.27-0.454c-11.347-18.036-20.477-38.919-26.278-61.146l-0.345-1.558c-6.747-24.525-12.079-53.701-14.937-83.599l-0.166-2.148z" />
<glyph unicode="&#xe915;" glyph-name="instagram" d="M512.615 710.606c-0.122 0-0.266 0-0.41 0-144.977 0-262.504-117.527-262.504-262.504s117.527-262.504 262.504-262.504c144.941 0 262.445 117.468 262.504 262.395v0.006c0 0.152 0.001 0.332 0.001 0.512 0 144.751-117.343 262.094-262.094 262.094 0 0-0.001 0-0.001 0v0zM512.615 277.675c-0.121 0-0.265 0-0.409 0-94.238 0-170.633 76.395-170.633 170.633s76.395 170.633 170.633 170.633c94.238 0 170.633-76.395 170.633-170.633 0-0.108 0-0.216 0-0.323v0.017c-0.405-93.869-76.362-169.862-170.178-170.325h-0.044zM846.71 721.36c0-33.939-27.513-61.452-61.452-61.452s-61.452 27.513-61.452 61.452c0 33.939 27.513 61.452 61.452 61.452v0c33.939 0 61.452-27.513 61.452-61.452v0zM1020.825 659.191c0.040 1.837 0.063 4.003 0.063 6.173 0 80.794-31.616 154.204-83.15 208.533l0.127-0.135c-54.446 51.289-128.013 82.808-208.942 82.808-1.979 0-3.953-0.019-5.923-0.056l0.295 0.004c-84.497 4.814-337.988 4.814-422.484 0-1.818 0.039-3.96 0.061-6.108 0.061-80.724 0-154.114-31.402-208.621-82.657l0.158 0.147c-51.229-54.288-82.717-127.687-82.717-208.44 0-2.192 0.023-4.378 0.069-6.559l-0.005 0.326c-4.814-84.702-4.814-337.885 0-422.689-0.043-1.9-0.067-4.14-0.067-6.385 0-80.691 31.535-154.017 82.954-208.325l-0.131 0.139c54.504-51.289 128.122-82.805 209.102-82.805 1.923 0 3.842 0.018 5.757 0.053l-0.287-0.004c84.497-4.814 337.988-4.814 422.484 0 1.9-0.043 4.14-0.067 6.385-0.067 80.691 0 154.017 31.535 208.325 82.954l-0.139-0.131c51.228 54.433 82.707 127.958 82.707 208.836 0 2.017-0.020 4.029-0.059 6.036l0.005-0.301c4.814 84.497 4.814 337.988 0 422.28zM911.337 146.167c-17.947-44.641-52.658-79.352-96.139-96.886l-1.161-0.414c-68.131-14.62-146.406-22.992-226.636-22.992-26.458 0-52.704 0.911-78.708 2.702l3.51-0.194c-22.319-1.562-48.368-2.452-74.624-2.452-80.427 0-158.904 8.352-234.61 24.235l7.401-1.299c-44.641 17.947-79.352 52.658-96.886 96.139l-0.414 1.161c-14.571 68.019-22.915 146.165-22.915 226.259 0 26.592 0.92 52.969 2.729 79.102l-0.196-3.527c-1.562 22.319-2.452 48.368-2.452 74.624 0 80.427 8.352 158.904 24.235 234.61l-1.299-7.401c17.947 44.641 52.658 79.352 96.139 96.886l1.161 0.414c68.38 14.728 146.937 23.163 227.464 23.163 26.275 0 52.34-0.898 78.167-2.665l-3.49 0.191c22.319 1.562 48.368 2.452 74.624 2.452 80.427 0 158.904-8.352 234.61-24.235l-7.401 1.299c44.641-17.947 79.352-52.658 96.886-96.139l0.414-1.161c14.62-68.131 22.992-146.406 22.992-226.636 0-26.458-0.911-52.704-2.702-78.708l0.194 3.51c1.543-22.099 2.423-47.891 2.423-73.889 0-80.774-8.491-159.564-24.629-235.528l1.313 7.379z" />
<glyph unicode="&#xe916;" glyph-name="mail" horiz-adv-x="1280" d="M1152.025 960h-1024c-70.406-0.252-127.383-57.386-127.383-127.827 0-0.070 0-0.139 0-0.209v0.011l-0.641-768c0.14-70.65 57.375-127.885 128.011-128.025h1024.013c70.65 0.14 127.885 57.375 128.025 128.011v768.013c-0.14 70.65-57.375 127.885-128.011 128.025h-0.013zM1152.025 63.975h-1024v640.025l512-319.988 512 319.988zM640.025 511.988l-512 319.988h1024z" />
<glyph unicode="&#xe917;" glyph-name="menu" horiz-adv-x="1536" d="M0-64h1536.092v170.636h-1536.092zM0 362.636h1536.092v170.636h-1536.092zM0 960v-170.636h1536.092v170.636z" />
<glyph unicode="&#xe918;" glyph-name="mobile-alt" horiz-adv-x="640" d="M544.011 960h-448.013c-53.010-0.020-95.978-42.988-95.998-95.996v-832.006c0.020-53.010 42.988-95.978 95.996-95.998h448.015c53.010 0.020 95.978 42.988 95.998 95.996v832.006c-0.020 53.010-42.988 95.978-95.996 95.998h-0.002zM320.004-0.013c-35.28 0-63.88 28.6-63.88 63.88s28.6 63.88 63.88 63.88c35.28 0 63.88-28.6 63.88-63.88v0c0-35.28-28.6-63.88-63.88-63.88v0zM544.011 215.973c-0.040-13.233-10.757-23.95-23.987-23.991h-400.036c-13.233 0.040-23.95 10.757-23.991 23.987v624.043c0.040 13.233 10.757 23.95 23.987 23.991h400.036c13.233-0.040 23.95-10.757 23.991-23.987v-0.004z" />
<glyph unicode="&#xe919;" glyph-name="quote" d="M361.482 960h-207.949c-84.688-0.264-153.269-68.845-153.533-153.508v-409.446c0.211-84.728 68.813-153.362 153.508-153.626h123.819c14.177-0.050 25.65-11.554 25.65-25.738 0-0.622-0.022-1.239-0.065-1.85l0.005 0.082c-6.020-91.861-42.965-174.094-100.412-237.379l0.29 0.324c-4.114-4.526-6.633-10.567-6.633-17.196 0-14.106 11.406-25.548 25.498-25.607h127.652c0.087-0.001 0.189-0.002 0.292-0.002 8.093 0 15.282 3.869 19.818 9.859l0.045 0.062c23.672 30.707 91.189 133.081 91.189 300.385v614.132c0.022 0.767 0.034 1.67 0.034 2.576 0 53.549-43.41 96.958-96.958 96.958-0.791 0-1.579-0.009-2.365-0.028l0.117 0.002zM924.511 960h-207.93c-84.696-0.253-153.288-68.839-153.552-153.508v-409.446c0.253-84.702 68.849-153.298 153.527-153.552h123.818c14.155-0.079 25.599-11.572 25.599-25.737 0-0.648-0.024-1.291-0.071-1.928l0.005 0.085c-6.020-91.861-42.965-174.094-100.412-237.379l0.29 0.324c-4.114-4.526-6.633-10.567-6.633-17.196 0-14.106 11.406-25.548 25.498-25.607h127.783c0.087-0.001 0.189-0.002 0.292-0.002 8.093 0 15.282 3.869 19.818 9.859l0.045 0.062c23.672 30.707 91.189 133.081 91.189 300.385v614.132c0.022 0.768 0.034 1.671 0.034 2.578 0 53.549-43.41 96.958-96.958 96.958-0.824 0-1.645-0.010-2.463-0.031l0.121 0.002z" />
<glyph unicode="&#xe91b;" glyph-name="star" horiz-adv-x="1070" d="M477.591 924.383l-130.597-264.784-292.187-42.589c-31.13-4.719-54.712-31.291-54.712-63.371 0-17.956 7.388-34.186 19.289-45.816l211.439-205.985-50.044-291.013c-0.571-3.212-0.898-6.909-0.898-10.683 0-35.339 28.648-63.987 63.987-63.987 10.852 0 21.073 2.701 30.027 7.469l-0.345-0.168 261.401 137.362 261.401-137.362c8.609-4.599 18.83-7.301 29.682-7.301 35.339 0 63.987 28.648 63.987 63.987 0 3.774-0.327 7.471-0.953 11.066l0.055-0.383-49.837 291.013 211.219 205.973c11.914 11.643 19.302 27.873 19.302 45.828 0 32.080-23.582 58.652-54.357 63.327l-0.355 0.044-292.187 42.589-130.528 264.784c-10.714 21.274-32.38 35.613-57.395 35.613s-46.681-14.339-57.227-35.246l-0.168-0.367z" />
<glyph unicode="&#xe91f;" glyph-name="Vector-Smart-Object" horiz-adv-x="1026" d="M1018.177 292.468c-34.512 22.356-76.703 35.646-121.998 35.646-3.043 0-6.071-0.060-9.084-0.179l0.433 0.014c-4.705 0.125-10.243 0.196-15.799 0.196-41.321 0-81.723-3.934-120.852-11.447l3.993 0.638c-17.708 48.579-52.367 87.399-96.658 110.079l-1.121 0.521c-26.17 13.104-57.018 20.776-89.658 20.776-27.703 0-54.116-5.526-78.195-15.536l1.35 0.497c-7.612-3.026-12.896-10.33-12.896-18.867 0-1.547 0.173-3.054 0.502-4.501l-0.026 0.136c0.201-0.402 0.201-1.004 0.402-1.405-11.458 2.198-24.636 3.456-38.108 3.456-28.128 0-54.976-5.483-79.533-15.438l1.419 0.509c-7.532-2.951-12.77-10.155-12.77-18.583 0-1.65 0.201-3.254 0.579-4.787l-0.029 0.137c0.201-0.402 0.201-1.004 0.402-1.405-11.458 2.198-24.636 3.456-38.108 3.456-28.128 0-54.976-5.483-79.533-15.438l1.419 0.509c-7.612-3.026-12.896-10.33-12.896-18.867 0-1.547 0.173-3.054 0.502-4.501l-0.026 0.136c0.201-0.402 0.201-1.004 0.402-1.405-11.453 2.195-24.625 3.45-38.091 3.45-28.134 0-54.988-5.48-79.553-15.432l1.421 0.509c-7.532-2.951-12.77-10.155-12.77-18.583 0-1.65 0.201-3.254 0.579-4.787l-0.029 0.137c7.058-31.053 19.915-58.337 37.467-81.919l-0.409 0.575c-57.762-22.136-103.323-65.162-128.254-119.606l-0.589-1.434c-1.203-2.501-1.907-5.438-1.907-8.54 0-6.935 3.516-13.049 8.862-16.656l0.071-0.045c36.524-24.81 81.501-39.757 129.946-40.155l0.102-0.001c0.159 0 0.348-0.001 0.537-0.001 15.046 0 29.716 1.609 43.847 4.664l-1.36-0.246c-0.512-5.603-0.804-12.119-0.804-18.703 0-25.135 4.254-49.276 12.081-71.743l-0.464 1.53c2.771-7.99 10.234-13.624 19.012-13.624 0.012 0 0.023 0 0.035 0h-0.002c1.303 0.038 2.547 0.183 3.756 0.425l-0.142-0.024c40.88 7.279 76.671 25.329 105.408 51.088l-0.2-0.177c0.215-0.408 0.358-0.886 0.401-1.392l0.001-0.014c2.771-7.99 10.234-13.624 19.012-13.624 0.012 0 0.023 0 0.035 0h-0.002c1.303 0.038 2.547 0.182 3.755 0.425l-0.141-0.024c40.88 7.279 76.671 25.329 105.408 51.088l-0.2-0.177c0.201-0.402 0.201-1.004 0.402-1.405 2.771-7.99 10.234-13.624 19.012-13.624 0.012 0 0.023 0 0.035 0h-0.002c1.303 0.038 2.547 0.182 3.755 0.425l-0.141-0.024c40.877 7.271 76.668 25.311 105.409 51.060l-0.201-0.177c0.201-0.402 0.201-1.004 0.402-1.405 2.771-7.99 10.234-13.624 19.012-13.624 0.012 0 0.023 0 0.035 0h-0.002c1.303 0.038 2.547 0.182 3.755 0.425l-0.141-0.024c57.185 9.652 105.447 41.809 136.218 86.862l0.455 0.706c20.286 30.802 32.361 68.575 32.361 109.169 0 13.196-1.276 26.095-3.712 38.579l0.206-1.265c86.048 15.23 187.154 14.026 228.027-17.64 3.339-2.629 7.604-4.216 12.241-4.216 6.428 0 12.142 3.051 15.776 7.783l0.035 0.047c2.597 3.227 4.168 7.376 4.168 11.891 0 6.281-3.041 11.852-7.73 15.321l-0.052 0.037zM238.296 291.063c19.165-40.097 50.090-71.993 88.273-91.865l1.102-0.522-56.505-15.833c-63.506 7.207-115.106 51.2-133.362 109.884l-0.3 1.118c13.774 4.084 29.599 6.435 45.974 6.435 19.625 0 38.461-3.376 55.96-9.579l-1.171 0.362zM190.74 81.851c-15.719-4.795-33.787-7.555-52.499-7.555-33.742 0-65.387 8.976-92.679 24.671l0.904-0.479c24.462 43.672 64.85 75.962 113.11 89.269l1.305 0.307c19.274-16.669 42.255-29.641 67.491-37.5l1.348-0.362c-16.892-19.158-30.197-41.936-38.579-66.97l-0.401-1.381zM310.375 34.554c-21.463-26.076-50.337-45.341-83.389-54.619l-1.168-0.28c-3.169 11.833-4.989 25.419-4.989 39.43 0 50.715 23.849 95.859 60.943 124.831l0.35 0.263 56.304 15.833c-18.351-29.557-29.228-65.418-29.228-103.82 0-7.613 0.427-15.126 1.26-22.516l-0.083 0.907zM265.946 329.727c13.867 4.182 29.803 6.589 46.301 6.589 19.52 0 38.253-3.37 55.65-9.559l-1.16 0.36c19.165-40.097 50.090-71.993 88.273-91.865l1.102-0.522-56.505-15.833c-63.509 7.054-115.147 51.015-133.363 109.687l-0.298 1.114zM438.673 70.636c-21.463-26.076-50.337-45.341-83.389-54.619l-1.168-0.28c-3.169 11.833-4.989 25.419-4.989 39.43 0 50.715 23.849 95.859 60.943 124.831l0.35 0.263 56.304 15.833c-18.353-29.558-29.231-65.421-29.231-103.824 0-7.621 0.428-15.143 1.263-22.541l-0.083 0.907zM394.186 365.81c13.867 4.182 29.803 6.589 46.301 6.589 19.52 0 38.253-3.37 55.65-9.559l-1.16 0.36c19.165-40.097 50.090-71.993 88.273-91.865l1.102-0.522-56.505-15.833c-63.503 7.069-115.133 51.023-133.363 109.686l-0.298 1.115zM566.913 106.719c-21.462-26.078-50.337-45.343-83.39-54.619l-1.167-0.28c-3.169 11.833-4.989 25.419-4.989 39.43 0 50.715 23.849 95.859 60.943 124.831l0.35 0.263 56.304 15.833c-18.353-29.558-29.231-65.421-29.231-103.824 0-7.621 0.428-15.143 1.263-22.541l-0.083 0.907zM522.426 401.893c13.739 4.207 29.53 6.629 45.888 6.629 25.893 0 50.368-6.069 72.080-16.863l-0.943 0.424c34.928-17.932 61.808-47.403 75.979-83.281l0.374-1.074-59.717-16.837c-63.469 7.297-115.027 51.25-133.359 109.882l-0.302 1.12zM703.356 154.017c-21.879-31.927-54.040-55.424-91.638-65.842l-1.15-0.272c-3.17 11.824-4.99 25.4-4.99 39.4 0 50.766 23.936 95.942 61.138 124.857l0.357 0.267 59.517 16.837c1.613-8.518 2.535-18.317 2.535-28.332 0-32.329-9.615-62.412-26.14-87.547l0.372 0.603zM32.268 771.985c40.873 31.866 142.065 32.87 228.027 17.64-2.164-11.49-3.402-24.708-3.402-38.215 0-6.509 0.287-12.951 0.85-19.314l-0.059 0.823c0.26-10.887 9.147-19.613 20.072-19.613 11.089 0 20.078 8.989 20.078 20.078 0 1.183-0.102 2.343-0.299 3.47l0.017-0.12c-0.465 4.582-0.731 9.901-0.731 15.283 0 10.039 0.923 19.862 2.69 29.389l-0.152-0.988 59.517-16.837c37.445-29.235 61.293-74.379 61.293-125.094 0-14.011-1.82-27.596-5.237-40.533l0.248 1.104c-13.5 3.892-25.203 8.775-36.192 14.8l0.913-0.458c-3.099 2.054-6.904 3.278-10.995 3.278-11.089 0-20.078-8.989-20.078-20.078 0-8.253 4.98-15.343 12.098-18.43l0.13-0.050c18.653-10.11 40.302-17.84 63.19-22.025l1.346-0.204c1.135-0.23 2.439-0.362 3.774-0.362 4.038 0 7.794 1.206 10.928 3.276l-0.074-0.046c4.051 2.798 7.034 6.89 8.369 11.67l0.035 0.148c28.517-25.559 64.276-43.596 103.832-50.691l1.29-0.192c1.121-0.222 2.409-0.349 3.727-0.349 4.052 0 7.823 1.2 10.978 3.264l-0.077-0.047c4.051 2.798 7.034 6.89 8.369 11.67l0.035 0.148c28.54-25.572 64.331-43.612 103.92-50.692l1.288-0.191c1.121-0.222 2.409-0.349 3.727-0.349 4.052 0 7.823 1.2 10.978 3.264l-0.077-0.047c4.051 2.798 7.034 6.89 8.369 11.67l0.035 0.148c28.54-25.572 64.331-43.612 103.92-50.692l1.288-0.191c1.029-0.185 2.214-0.291 3.423-0.291 8.854 0 16.385 5.667 19.164 13.572l0.044 0.142c7.363 20.937 11.617 45.078 11.617 70.213 0 6.584-0.292 13.1-0.863 19.535l0.060-0.832c12.798-2.735 27.529-4.34 42.622-4.417h0.058c48.611 0.427 93.648 15.368 131.088 40.691l-0.84-0.535c5.505 3.64 9.087 9.803 9.087 16.803 0 3.062-0.685 5.964-1.911 8.56l0.052-0.122c-25.527 55.96-71.033 99.099-127.181 120.932l-1.575 0.539c17.143 23.071 30 50.421 36.778 80.088l0.28 1.457c0.321 1.344 0.505 2.887 0.505 4.473 0 8.517-5.303 15.795-12.787 18.713l-0.137 0.047c-23.144 9.443-49.998 14.923-78.132 14.923-13.466 0-26.638-1.255-39.406-3.656l1.316 0.206c0.201 0.402 0.201 1.004 0.402 1.405 0.321 1.344 0.505 2.887 0.505 4.473 0 8.517-5.303 15.795-12.787 18.713l-0.137 0.047c-23.152 9.451-50.017 14.936-78.163 14.936-13.434 0-26.576-1.25-39.317-3.639l1.315 0.205c0.201 0.402 0.201 1.004 0.402 1.405 0.321 1.344 0.505 2.887 0.505 4.473 0 8.517-5.303 15.795-12.787 18.713l-0.137 0.047c-23.144 9.443-49.998 14.923-78.132 14.923-13.466 0-26.638-1.255-39.406-3.656l1.316 0.206c0.201 0.402 0.201 1.004 0.402 1.405 0.321 1.344 0.505 2.887 0.505 4.473 0 8.517-5.303 15.795-12.787 18.713l-0.137 0.047c-22.725 9.418-49.116 14.888-76.785 14.888-32.644 0-63.51-7.613-90.92-21.161l1.201 0.537c-45.219-23.544-79.73-62.427-97.072-109.606l-0.449-1.396c-35.42 6.856-76.154 10.778-117.805 10.778-5.152 0-10.29-0.060-15.413-0.179l0.761 0.014c-2.605 0.107-5.662 0.168-8.733 0.168-45.297 0-87.49-13.291-122.891-36.187l0.888 0.538c-5.807-3.587-9.619-9.918-9.619-17.139 0-11.089 8.989-20.078 20.078-20.078 5.437 0 10.368 2.161 13.984 5.67l-0.005-0.005zM543.651 562.974c-34.219 9.558-63.093 28.823-84.328 54.613l-0.228 0.286c0.749 6.484 1.177 13.996 1.177 21.609 0 38.402-10.877 74.263-29.719 104.671l0.491-0.851 56.304-15.833c37.449-29.213 61.302-74.343 61.302-125.045 0-14.018-1.824-27.611-5.246-40.553l0.248 1.103zM671.892 526.892c-34.219 9.558-63.093 28.823-84.328 54.613l-0.228 0.286c0.752 6.476 1.18 13.98 1.18 21.584 0 38.436-10.957 74.314-29.918 104.679l0.485-0.833 56.304-15.833c37.559-29.182 61.495-74.357 61.495-125.123 0-14.001-1.821-27.576-5.238-40.502l0.248 1.102zM800.132 490.809c-34.219 9.558-63.093 28.823-84.328 54.613l-0.228 0.286c0.752 6.476 1.18 13.98 1.18 21.584 0 38.436-10.957 74.314-29.918 104.679l0.485-0.833 56.304-15.833c37.552-29.182 61.483-74.353 61.483-125.114 0-13.983-1.816-27.542-5.225-40.454l0.247 1.102zM979.485 609.641c-26.342-15.257-57.953-24.259-91.667-24.259-18.754 0-36.857 2.786-53.919 7.966l1.313-0.343c-8.813 26.408-22.144 49.175-39.248 68.532l0.182-0.21c26.563 8.311 49.529 21.27 69.095 38.077l-0.257-0.216c49.6-13.539 90.014-45.853 113.934-88.639l0.481-0.937zM888.302 804.683c-18.635-59.752-70.193-103.705-132.929-110.933l-0.732-0.069-56.505 15.833c39.3 20.422 70.23 52.359 88.859 91.303l0.516 1.198c16.307 5.946 35.132 9.384 54.76 9.384 16.404 0 32.246-2.401 47.195-6.872l-1.164 0.299zM760.062 840.91c-18.635-59.752-70.193-103.705-132.929-110.933l-0.732-0.069-56.505 15.833c39.285 20.394 70.21 52.29 88.859 91.191l0.516 1.196c16.275 5.983 35.069 9.444 54.672 9.444 16.44 0 32.311-2.434 47.273-6.962l-1.154 0.3zM631.822 876.964c-18.635-59.752-70.193-103.705-132.929-110.933l-0.732-0.069-56.505 15.833c39.285 20.394 70.21 52.29 88.859 91.191l0.516 1.196c16.275 5.983 35.069 9.444 54.672 9.444 16.44 0 32.311-2.434 47.273-6.962l-1.154 0.3zM386.556 903.208c20.814 10.429 45.35 16.534 71.313 16.534 16.294 0 32.026-2.405 46.86-6.878l-1.148 0.297c-18.635-59.752-70.193-103.705-132.929-110.933l-0.732-0.069-59.717 16.837c14.505 36.936 41.4 66.377 75.462 83.798l0.891 0.414zM297.984 670.563c-6.598-3.428-11.028-10.211-11.028-18.028 0-3.208 0.746-6.242 2.074-8.938l-0.053 0.119v-0.201c3.331-6.581 10.044-11.014 17.792-11.014 0.017 0 0.034 0 0.051 0h-0.003c0.054-0.001 0.117-0.001 0.181-0.001 3.231 0 6.271 0.818 8.924 2.258l-0.099-0.049c6.022 3.541 10.001 9.989 10.001 17.366 0 11.089-8.989 20.078-20.078 20.078-2.803 0-5.471-0.574-7.894-1.611l0.131 0.050z" />
<glyph unicode="&#xe920;" glyph-name="Vector-Smart-Object1" d="M997.99 26.214v505.173c12.417 14.701 19.974 33.857 20.002 54.778v53.834l-42.189 78.507-26.385-14.199 28.399-53.214h-103.834l-39.595 138.24h69.188l31.403-58.607 26.385 14.199-33.792 63.215v151.859h-285.389v-30.003h255.522v-110.182h-771.413v110.182h485.922v30.003h-516.028v-151.586l-90.18-168.209v-53.794c0.028-20.927 7.585-40.083 20.107-54.911l-0.104 0.127v-109.602h30.003v86.767c10.312-4.801 22.385-7.602 35.113-7.602 28.99 0 54.585 14.531 69.9 36.707l0.185 0.284c15.544-22.464 41.173-36.994 70.195-36.994s54.652 14.529 70.010 36.711l0.185 0.282c15.544-22.464 41.173-36.994 70.195-36.994s54.652 14.529 70.010 36.711l0.185 0.282c15.544-22.464 41.173-36.994 70.195-36.994s54.652 14.529 70.010 36.711l0.185 0.282c15.544-22.464 41.173-36.994 70.195-36.994s54.652 14.529 70.010 36.711l0.185 0.282c15.544-22.464 41.173-36.994 70.195-36.994s54.652 14.529 70.010 36.711l0.185 0.282c15.5-22.46 41.096-36.991 70.086-36.991 12.728 0 24.802 2.801 35.638 7.821l-0.525-0.218v-121.788h-43.964v68.267h-391.407v-68.267h-50.995v-30.003h485.82v-120.183h-34.133v85.333h-30.003v-85.333h-29.867v85.333h-30.003v-85.333h-40.004v33.007c0 0 0 0 0 0 0 30.503-24.699 55.238-55.188 55.296h-0.006c-0.060 0-0.132 0-0.203 0-15.715 0-29.869-6.688-39.769-17.373l-0.032-0.035c-10.027 10.696-24.232 17.371-39.998 17.408h-0.007c-0.060 0-0.132 0-0.203 0-15.715 0-29.869-6.688-39.769-17.373l-0.032-0.035c-10.069 10.706-24.326 17.374-40.141 17.374-30.407 0-55.057-24.65-55.057-55.057 0-0.036 0-0.072 0-0.108v0.006-33.007h-51.405v-30.003h485.82v-120.183h-54.204v80.213h-110.217v-80.213h-80.213v80.213h-190.396v-80.213h-50.79v-30.003h67.004v-30.003h-152.201v259.857h-60.211v120.218h-40.004v30.003h35.021v30.003h-100.215v-30.003h34.85v-30.003h-160.051v-120.183h-50.005v105.199h-30.174v-365.807h-26.010v-90.010h157.389v30.003h-127.386v30.003h604.16v30.003h-55.159v30.003h290.611v-30.003h-205.414v-30.003h329.796v-30.003h-806.605v-30.003h836.608v90.214zM146.193 586.206c0-30.435-24.673-55.108-55.108-55.108s-55.108 24.673-55.108 55.108v0 34.987h110.217zM150.187 651.401h-103.97l73.967 138.206h72.806zM286.72 586.206c0-30.483-24.711-55.194-55.194-55.194s-55.194 24.711-55.194 55.194v0 34.987h110.080v-34.987zM289.314 651.401h-107.725l42.803 138.206h90.999zM426.906 586.206c0-30.483-24.711-55.194-55.194-55.194s-55.194 24.711-55.194 55.194v0 34.987h110.148v-34.987zM427.895 651.401h-108.305l26.385 138.206h91.614zM467.9 789.606h92.16l6.588-138.206h-108.646zM567.296 586.206c0-30.483-24.711-55.194-55.194-55.194s-55.194 24.711-55.194 55.194v0 34.987h110.217v-34.987zM589.892 789.606h91.785l23.006-138.206h-108.203zM707.482 586.206c0-30.483-24.711-55.194-55.194-55.194s-55.194 24.711-55.194 55.194v0 34.987h110.217v-34.987zM712.090 789.606h91.204l39.595-138.206h-107.691zM847.701 586.206c0-30.483-24.711-55.194-55.194-55.194s-55.194 24.711-55.194 55.194v0 34.987h110.217v-34.987zM623.309 386.799h-60.314v37.99h60.211zM713.523 386.799h-60.314v37.99h60.177zM803.738 386.799h-60.348v37.99h60.211zM893.952 386.799h-60.348v37.99h60.211zM613.342 236.612h-50.142v33.007c0 13.809 11.194 25.003 25.003 25.003s25.003-11.194 25.003-25.003v0zM693.555 236.612h-50.142v33.007c0 13.809 11.194 25.003 25.003 25.003s25.003-11.194 25.003-25.003v0zM773.769 236.612h-50.142v33.007c0 13.809 11.194 25.003 25.003 25.003s25.003-11.194 25.003-25.003v0zM136.192 376.798h170.394v-90.214h-170.394zM366.797 146.398h-65.195v-30.003h65.195v-30.003h-105.199v-30.003h105.199v-30.003h-310.613v230.229h310.613v-110.217zM613.205 86.187h-50.005v50.005h50.005zM693.419 86.187h-50.005v50.005h50.005zM883.814 86.187h-50.005v50.005h50.005zM967.817 26.18h-68.267v30.003h68.267zM988.023 586.172c0-30.483-24.711-55.194-55.194-55.194s-55.194 24.711-55.194 55.194v0 35.021h110.387zM201.114 93.662h31.505v-31.505h-31.505zM148.241 93.662h31.505v-31.505h-31.505zM436.156 886.306h31.505v-31.505h-31.505zM556.169 886.306h31.505v-31.505h-31.505zM496.265 886.306h31.505v-31.505h-31.505z" />
<glyph unicode="&#xe921;" glyph-name="Vector-Smart-Object2" horiz-adv-x="960" d="M951.118 733.912l-464.769 224.594c-1.882 0.928-4.097 1.47-6.438 1.47s-4.556-0.543-6.526-1.509l0.087 0.039-465.078-224.594c-5.015-2.523-8.396-7.629-8.396-13.525 0-0.026 0-0.051 0-0.077v0.004-544.938c0-0.022 0-0.047 0-0.073 0-5.896 3.381-11.002 8.309-13.485l0.087-0.040 464.949-224.388c1.817-0.881 3.952-1.396 6.207-1.396 0.136 0 0.271 0.002 0.406 0.006h-0.020c0.040 0 0.087-0.001 0.135-0.001 2.34 0 4.561 0.513 6.555 1.431l-0.097-0.040 464.563 224.568c5.015 2.523 8.396 7.629 8.396 13.525 0 0.026 0 0.051 0 0.077v-0.004 544.964c0.004 0.119 0.006 0.258 0.006 0.398 0 5.744-3.395 10.695-8.287 12.957l-0.088 0.037zM479.834 928.298l430.285-207.777-124.8-60.185c-0.744 0.617-1.592 1.151-2.504 1.568l-0.071 0.029-427.349 206.18zM321.581 851.321l429.77-207.391-87.999-42.39-429.77 207.185zM761.343 615.344v-157.095l-82.204-39.608v157.095zM929.692 184.776l-434.946-209.992v511.768l103.786 49.987c4.575 2.625 7.606 7.48 7.606 13.045 0 8.278-6.711 14.988-14.988 14.988-1.978 0-3.867-0.383-5.595-1.079l0.101 0.036-105.794-50.785-41.591 20.010c-2.123 1.223-4.668 1.944-7.382 1.944-8.278 0-14.988-6.711-14.988-14.988 0-6.3 3.887-11.692 9.393-13.909l0.101-0.036 39.608-19.186v-511.794l-435.204 209.992v511.742l331.161-159.67c1.897-0.879 4.118-1.391 6.458-1.391 0.047 0 0.095 0 0.142 0.001h-0.007c5.899 0.059 11.001 3.414 13.557 8.31l0.041 0.085c0.926 1.896 1.468 4.125 1.468 6.48 0 5.917-3.417 11.035-8.385 13.491l-0.088 0.039-324.748 156.657 148.982 72.109 450.81-217.847v-180.067c0-0.040-0.001-0.087-0.001-0.134 0-5.334 2.768-10.022 6.945-12.706l0.060-0.036c2.151-1.377 4.774-2.195 7.589-2.195 0.148 0 0.295 0.002 0.442 0.007l-0.021-0.001c0.040 0 0.087-0.001 0.135-0.001 2.34 0 4.561 0.513 6.555 1.431l-0.097-0.040 112.181 54.082c5.015 2.523 8.396 7.629 8.396 13.525 0 0.026 0 0.051 0 0.077v-0.004 181.2l138.321 66.804v-511.948z" />
<glyph unicode="&#xe922;" glyph-name="whatsapp" d="M870.4 811.52c-91.896 92.092-218.954 149.066-359.319 149.066-280.338 0-507.597-227.259-507.597-507.597 0-93.58 25.323-181.245 69.491-256.517l-1.296 2.389-71.68-262.861 269.005 70.656c69.803-38.677 153.059-61.441 241.631-61.441 0.3 0 0.6 0 0.899 0.001h0.465c0.006 0 0.014 0 0.021 0 281.15 0 509.372 226.611 511.977 507.145l0.002 0.247c-1.62 140.785-60.099 267.601-153.5 358.815l-0.1 0.097zM512 30.413c-0.145 0-0.317 0-0.489 0-79.155 0-153.207 21.846-216.456 59.839l1.905-1.061-15.36 9.114-159.539-41.779 42.496 155.648-10.24 15.974c-38.564 62.519-61.412 138.289-61.412 219.396 0 233.398 189.207 422.605 422.605 422.605 231.689 0 419.832-186.446 422.574-417.486l0.002-0.259c-2.545-233.466-192.289-421.772-426.066-421.99h-0.021zM743.117 346.317c-12.595 6.349-74.957 37.069-86.63 40.96s-20.48 6.349-28.57-6.451-32.666-40.96-40.243-49.869-14.848-9.626-27.443-3.174c-73.962 30.104-133.577 82.775-171.654 149.35l-0.89 1.69c-13.005 22.426 13.005 20.48 37.274 69.222 1.433 2.945 2.27 6.408 2.27 10.065 0 4.493-1.264 8.691-3.455 12.257l0.058-0.102c-3.174 6.451-28.57 68.813-39.117 94.208s-20.48 21.299-28.57 21.709-15.77 0-24.269 0c-13.455-0.398-25.435-6.392-33.751-15.723l-0.041-0.047c-27.349-26.006-44.361-62.663-44.361-103.293 0-0.874 0.008-1.746 0.024-2.617l-0.002 0.131c4.368-50.019 22.942-95.006 51.614-131.725l-0.414 0.551c54.987-81.176 128.225-146.051 214.072-189.695l3.221-1.486c35.626-20.956 78.477-33.335 124.219-33.335 9.883 0 19.631 0.578 29.213 1.702l-1.163-0.111c36.425 7.622 66.643 29.662 84.975 59.741l0.324 0.573c5.566 12.467 8.807 27.015 8.807 42.321 0 6.357-0.559 12.583-1.631 18.632l0.094-0.64c-2.97 5.734-11.469 9.318-23.962 15.155z" />
<glyph unicode="&#xe923;" glyph-name="wishlist" horiz-adv-x="1109" d="M804.26 960c-100.002-0.524-189.352-45.681-249.218-116.551l-0.401-0.487c-60.253 71.34-149.575 116.493-249.458 117.038h-0.094c-1.090 0.014-2.378 0.022-3.667 0.022-166.498 0-301.472-134.974-301.472-301.472 0-1.916 0.018-3.828 0.053-5.735l-0.004 0.286c0-211.968 188.521-381.865 474.115-644.547l80.393-72.554 80.393 72.554c285.595 262.415 474.115 432.512 474.115 644.547 0.031 1.62 0.049 3.53 0.049 5.445 0 166.498-134.974 301.472-301.472 301.472-1.171 0-2.341-0.007-3.51-0.020l0.178 0.002zM588.808 81.845l-10.987-10.384-22.912-20.768-22.912 20.768-11.188 10.384c-117.612 102.334-224.493 208.621-323.971 321.585l-3.227 3.737c-61.619 64.345-101.518 149.928-107.666 244.71l-0.060 1.157c-0.014 0.927-0.022 2.021-0.022 3.116 0 60.367 24.115 115.102 63.237 155.097l-0.040-0.041c39.259 39.213 93.47 63.463 153.345 63.463 1.038 0 2.074-0.007 3.109-0.022l-0.157 0.002c73.783-0.801 139.62-34.149 183.942-86.339l0.291-0.351 65.319-77.579 65.319 77.579c44.54 52.638 110.422 86.023 184.118 86.689l0.115 0.001c0.826 0.011 1.802 0.018 2.779 0.018 60.013 0 114.365-24.243 153.794-63.47l-0.009 0.009c39.083-40.024 63.194-94.818 63.194-155.244 0-1.006-0.007-2.011-0.020-3.014l0.002 0.152c-6.396-95.903-46.254-181.434-107.873-246.022l0.147 0.155c-102.838-116.691-209.87-223.002-323.542-321.877l-4.125-3.512z" />
</font>
</defs>
</svg>
